<svg xmlns="http://www.w3.org/2000/svg" viewBox="0 0 512 512">
  <g fill="none" stroke="#000" stroke-width="24" stroke-linecap="round" stroke-linejoin="round">
<path d="M168 92h176c28 0 52 24 52 52v224c0 28-24 52-52 52H168c-28 0-52-24-52-52V144c0-28 24-52 52-52z"/>
    <rect x="166" y="140" width="180" height="120" rx="14"/>
    <circle cx="196" cy="312" r="10"/>
    <path d="M166 320h56"/>
    <path d="M194 292v56"/>
    <circle cx="330" cy="318" r="16"/>
    <circle cx="362" cy="336" r="16"/>
    <path d="M250 366l-32 18"/>
    <path d="M282 366l-32 18"/>
    <path d="M374 286v82"/>
  </g>
</svg>
