<svg xmlns="http://www.w3.org/2000/svg" viewBox="0 0 512 512">
  <g fill="none" stroke="#000" stroke-width="24" stroke-linecap="round" stroke-linejoin="round">
<path d="M140 246c-30 0-56 24-56 54 0 58 38 96 92 86 18-4 32-16 40-32l12-24h56l12 24c8 16 22 28 40 32 54 10 92-28 92-86 0-30-26-54-56-54-24 0-44 12-58 30l-10 14H208l-10-14c-14-18-34-30-58-30z"/>
    <circle cx="214" cy="292" r="22"/>
    <path d="M154 318h44"/>
    <path d="M176 296v44"/>
    <circle cx="360" cy="290" r="18"/>
    <circle cx="392" cy="314" r="12"/>
    <circle cx="344" cy="328" r="12"/>
    <circle cx="300" cy="342" r="18"/>
  </g>
</svg>
