<svg xmlns="http://www.w3.org/2000/svg" viewBox="0 0 512 512">
  <g fill="none" stroke="#000" stroke-width="24" stroke-linecap="round" stroke-linejoin="round">
<path d="M140 104h232c22 0 40 18 40 40v128c0 22-18 40-40 40H140c-22 0-40-18-40-40V144c0-22 18-40 40-40z"/>
    <path d="M116 288h280c20 0 36 16 36 36v80c0 20-16 36-36 36H116c-20 0-36-16-36-36v-80c0-20 16-36 36-36z"/>
    <rect x="154" y="140" width="204" height="96" rx="12"/>
    <rect x="176" y="320" width="160" height="64" rx="12"/>
    <path d="M120 360h44"/>
    <path d="M142 338v44"/>
    <circle cx="380" cy="338" r="10"/>
    <circle cx="402" cy="356" r="10"/>
    <circle cx="358" cy="356" r="10"/>
    <circle cx="380" cy="374" r="10"/>
    <circle cx="206" cy="404" r="10"/>
    <circle cx="246" cy="404" r="10"/>
  </g>
</svg>
