<svg xmlns="http://www.w3.org/2000/svg" viewBox="0 0 512 512">
  <g fill="none" stroke="#000" stroke-width="24" stroke-linecap="round" stroke-linejoin="round">
<path d="M120 240c-40 0-72 32-72 72s32 72 72 72h272c40 0 72-32 72-72s-32-72-72-72H120z"/>
    <path d="M120 240c0-28 20-52 48-58 28-6 52 6 70 26 8 9 19 14 31 14h76c12 0 23-5 31-14 18-20 42-32 70-26 28 6 48 30 48 58"/>
    <path d="M256 96c-10 0-18 8-18 18v44"/>
    <path d="M238 158h36"/>
    <path d="M256 96c42 28 70 60 70 92"/>
    <path d="M256 96c-42 28-70 60-70 92"/>
    <path d="M170 300h56"/>
    <path d="M198 272v56"/>
    <circle cx="330" cy="290" r="14"/>
    <circle cx="362" cy="312" r="14"/>
    <circle cx="298" cy="312" r="14"/>
    <circle cx="330" cy="334" r="14"/>
  </g>
</svg>
