<svg xmlns="http://www.w3.org/2000/svg" viewBox="0 0 512 512">
  <g fill="none" stroke="#000" stroke-width="24" stroke-linecap="round" stroke-linejoin="round">
<path d="M120 260c-34 0-62 28-62 62 0 46 26 84 74 84h248c48 0 74-38 74-84 0-34-28-62-62-62-22 0-42 12-54 30l-10 16H184l-10-16c-12-18-32-30-54-30z"/>
    <circle cx="206" cy="346" r="22"/>
    <circle cx="306" cy="346" r="22"/>
    <path d="M140 324h44"/>
    <path d="M162 302v44"/>
    <circle cx="366" cy="310" r="12"/>
    <circle cx="392" cy="330" r="12"/>
    <circle cx="340" cy="330" r="12"/>
    <circle cx="366" cy="350" r="12"/>
    <rect x="246" y="300" width="20" height="14" rx="7"/>
    <rect x="286" y="300" width="20" height="14" rx="7"/>
  </g>
</svg>
