<svg xmlns="http://www.w3.org/2000/svg" viewBox="0 0 512 512">
  <g fill="none" stroke="#000" stroke-width="24" stroke-linecap="round" stroke-linejoin="round">
<path d="M138 252c-30 0-56 26-56 58 0 54 34 92 82 92 22 0 40-10 52-26l16-22h44l16 22c12 16 30 26 52 26 48 0 82-38 82-92 0-32-26-58-56-58-24 0-44 12-58 30l-12 16H208l-12-16c-14-18-34-30-58-30z"/>
    <circle cx="206" cy="330" r="22"/>
    <circle cx="300" cy="360" r="22"/>
    <path d="M150 320h40"/>
    <path d="M170 300v40"/>
    <circle cx="362" cy="300" r="12"/>
    <circle cx="388" cy="320" r="12"/>
    <circle cx="336" cy="320" r="12"/>
    <circle cx="362" cy="340" r="12"/>
    
    <circle cx="256" cy="286" r="18"/>
    <path d="M248 278l16 16"/>
    <path d="M264 278l-16 16"/>
  </g>
</svg>
